<svg width="198" height="262" viewBox="0 0 198 262" fill="none" xmlns="http://www.w3.org/2000/svg">
<path d="M24.2412 49.0898H26.3818C26.434 49.0898 26.4792 49.0939 26.5156 49.0996C26.527 49.1014 26.5369 49.1046 26.5459 49.1064C29.2276 51.6098 40.6157 63.9201 44.4092 96.4443H5.56738C9.54146 63.9595 21.342 51.5855 24.0771 49.1055C24.0854 49.1039 24.0943 49.1011 24.1045 49.0996C24.142 49.0939 24.1884 49.0899 24.2412 49.0898Z" stroke="white" stroke-width="5"/>
<path d="M45.0439 105.529V118.951L45.123 119.256L47.498 128.518V216.064C45.4863 216.481 43.6282 217.583 42.5537 219.27H7.35547C6.29955 217.612 4.48716 216.52 2.51562 216.087V128.524L4.95605 119.272L5.03906 118.959V105.529H45.0439Z" stroke="white" stroke-width="5"/>
<path d="M42.5381 225.626C43.214 226.687 44.1993 227.517 45.3389 228.09H4.53906C5.67864 227.517 6.66391 226.687 7.33984 225.626H42.5381Z" stroke="white" stroke-width="5"/>
<path d="M172.241 48.5H174.382C174.434 48.5 174.479 48.5041 174.516 48.5098C174.527 48.5115 174.537 48.5147 174.546 48.5166C177.228 51.02 188.616 63.3303 192.409 95.8545H153.567C157.541 63.3697 169.342 50.9956 172.077 48.5156C172.085 48.514 172.094 48.5113 172.104 48.5098C172.142 48.5041 172.188 48.5 172.241 48.5Z" stroke="white" stroke-width="5"/>
<path d="M193.044 104.939V118.361L193.123 118.666L195.498 127.928V215.475C193.486 215.891 191.628 216.993 190.554 218.68H155.355C154.3 217.022 152.487 215.93 150.516 215.497V127.935L152.956 118.683L153.039 118.369V104.939H193.044Z" stroke="white" stroke-width="5"/>
<path d="M190.538 225.036C191.214 226.097 192.199 226.927 193.339 227.5H152.539C153.679 226.927 154.664 226.097 155.34 225.036H190.538Z" stroke="white" stroke-width="5"/>
<path d="M97.4229 3H100.462C100.671 3 100.831 3.03277 100.929 3.06543C100.951 3.07302 100.968 3.08088 100.979 3.08594C104.736 6.55518 121.307 24.2072 126.678 71.3457H70.2832C75.9122 24.2544 93.089 6.50887 96.9131 3.0791C96.9234 3.07495 96.9371 3.06931 96.9551 3.06348C97.0522 3.03196 97.2132 3 97.4229 3Z" stroke="white" stroke-width="6"/>
<path d="M127.517 83.1465V102.687L127.61 103.053L131.001 116.269V241.118C127.993 241.626 125.218 243.248 123.739 245.764H73.1377C71.6836 243.289 68.9746 241.679 66.0234 241.144V116.28L69.5078 103.073L69.6064 102.696V83.1465H127.517Z" stroke="white" stroke-width="6"/>
<path d="M123.716 253.69C125.152 256.134 127.811 257.734 130.72 258.289H66.1094C69.018 257.734 71.6782 256.135 73.1143 253.69H123.716Z" stroke="white" stroke-width="6"/>
</svg>
