<svg width="24" height="24" viewBox="0 0 24 24" fill="none" xmlns="http://www.w3.org/2000/svg">
<path d="M9.49997 6.49989C9.49997 5.33322 8.68703 4.16704 5.49997 6.99993C0.999934 10.9999 2.49997 19.9999 2.99997 20.4999C3.49997 20.9999 8.99996 18.4999 9.49997 17.4999C9.99997 16.4999 8.99997 14.9999 9.99997 12.9999M14.5 6.49987C14.5 5.3332 15.3129 4.16702 18.5 6.99991C23 10.9999 21.5 19.9999 21 20.4999C20.5 20.9999 15 18.4999 14.5 17.4999C14 16.4999 15 14.9999 14 12.9999M17 14.5C17 12.1389 15.4804 10.9617 14.3232 10.1959C11.9363 8.61644 12 5.67554 12 3.13888C12 5.67554 12.0636 8.61644 9.67673 10.1959C8.5195 10.9617 7 12.1389 7 14.5" stroke="white" stroke-width="1.5" stroke-linecap="round" stroke-linejoin="round"/>
</svg>
